<svg width="24" height="24" viewBox="0 0 24 24" fill="none" xmlns="http://www.w3.org/2000/svg">
<path d="M16.7344 18.8467C17.224 19.4099 17.1893 20.2735 16.6299 20.7939L16.5254 20.8818C16.0238 21.2655 15.324 21.2654 14.8223 20.8818L14.7178 20.7939L6.44629 13.0986C5.84848 12.5424 5.81094 11.6195 6.33398 11.0176L6.44629 10.9014L14.7178 3.20605C15.2565 2.70511 16.0912 2.70496 16.6299 3.20605L16.7344 3.31543C17.2236 3.87864 17.1891 4.74136 16.6299 5.26172L9.78027 11.6338L9.71094 11.7139C9.57121 11.9135 9.59419 12.1931 9.78027 12.3662L16.6299 18.7383L16.7344 18.8467Z" fill="#151515" stroke="#151515" stroke-linejoin="round"/>
</svg>
